<?xml version="1.0" encoding="UTF-8" standalone="no"?>
<svg xmlns="http://www.w3.org/2000/svg" viewBox="0 0 800 600" width="800" height="600">
  <!-- Ice background -->
  <rect width="800" height="600" fill="#f0f9ff" />
  
  <!-- Blue line -->
  <rect x="0" y="280" width="800" height="10" fill="#0a3161" />
  
  <!-- Center ice circle -->
  <circle cx="400" cy="300" r="100" fill="none" stroke="#c8102e" stroke-width="5" />
  
  <!-- Players in various training positions -->
  
  <!-- Player 1 - skating -->
  <g transform="translate(600, 200) scale(0.8)" fill="#003366">
    <path d="M-30,-20 C-35,0 -40,20 -30,50 C-20,70 -10,80 0,85 C10,80 15,70 20,60 C35,30 40,10 40,-10 C40,-30 35,-50 30,-70 C20,-80 10,-85 0,-85 C-10,-85 -20,-80 -30,-70 Z" />
    <ellipse cx="0" cy="-95" rx="20" ry="15" />
    <path d="M-40,50 L-80,90 L-60,100 L-20,60 Z" />
    <rect x="-25" y="85" width="20" height="5" rx="2" />
    <rect x="5" y="85" width="20" height="5" rx="2" />
  </g>
  
  <!-- Player 2 - shooting -->
  <g transform="translate(200, 400) scale(0.8) rotate(15)" fill="#003366">
    <path d="M-30,-20 C-35,0 -40,20 -30,50 C-20,70 -10,80 0,85 C10,80 15,70 20,60 C35,30 40,10 40,-10 C40,-30 35,-50 30,-70 C20,-80 10,-85 0,-85 C-10,-85 -20,-80 -30,-70 Z" />
    <ellipse cx="0" cy="-95" rx="20" ry="15" />
    <path d="M40,40 L80,30 L90,50 L40,60 Z" />
    <rect x="-25" y="85" width="20" height="5" rx="2" />
    <rect x="5" y="85" width="20" height="5" rx="2" />
  </g>
  
  <!-- Player 3 - passing -->
  <g transform="translate(400, 450) scale(0.8) rotate(-10)" fill="#003366">
    <path d="M-30,-20 C-35,0 -40,20 -30,50 C-20,70 -10,80 0,85 C10,80 15,70 20,60 C35,30 40,10 40,-10 C40,-30 35,-50 30,-70 C20,-80 10,-85 0,-85 C-10,-85 -20,-80 -30,-70 Z" />
    <ellipse cx="0" cy="-95" rx="20" ry="15" />
    <path d="M-40,50 L-80,90 L-60,100 L-20,60 Z" />
    <rect x="-25" y="85" width="20" height="5" rx="2" />
    <rect x="5" y="85" width="20" height="5" rx="2" />
  </g>
  
  <!-- Player 4 - coach -->
  <g transform="translate(500, 150) scale(1)" fill="#444">
    <path d="M-25,-20 C-30,0 -30,20 -25,40 C-20,55 -10,65 0,70 C10,65 20,55 25,40 C30,20 30,0 25,-20 C15,-30 5,-35 0,-35 C-5,-35 -15,-30 -25,-20 Z" />
    <ellipse cx="0" cy="-45" rx="15" ry="12" />
    <path d="M25,30 L55,50 L50,55 L25,40 Z" />
  </g>
  
  <!-- Pucks -->
  <circle cx="300" cy="380" r="8" fill="#111" />
  <circle cx="340" cy="410" r="8" fill="#111" />
  <circle cx="380" cy="430" r="8" fill="#111" />
  
  <!-- Training cones -->
  <polygon points="650,350 660,380 640,380" fill="#FF7043" />
  <polygon points="700,350 710,380 690,380" fill="#FF7043" />
  <polygon points="750,350 760,380 740,380" fill="#FF7043" />
  
  <!-- Net -->
  <path d="M100,350 L150,320 L150,380 L100,410 Z" fill="none" stroke="#777" stroke-width="4" />
</svg>