<?xml version="1.0" encoding="UTF-8" standalone="no"?>
<svg xmlns="http://www.w3.org/2000/svg" viewBox="0 0 800 600" width="800" height="600">
  <!-- Document background -->
  <rect width="800" height="600" fill="#f9f9f9" />
  
  <!-- Report paper -->
  <rect x="100" y="50" width="600" height="500" fill="white" stroke="#ddd" stroke-width="2" />
  
  <!-- Report header -->
  <rect x="100" y="50" width="600" height="80" fill="#0a3161" />
  <text x="400" y="100" font-family="Arial" font-size="24" fill="white" text-anchor="middle">HOCKEY PERFORMANCE REPORT</text>
  
  <!-- Team logo suggestion -->
  <circle cx="150" cy="90" r="25" fill="#c8102e" />
  <path d="M135,90 L165,90 M150,75 L150,105" stroke="white" stroke-width="3" />
  
  <!-- Document sections -->
  <!-- Player info section -->
  <rect x="120" y="150" width="560" height="100" fill="#f5f5f5" stroke="#ddd" stroke-width="1" />
  <text x="140" y="180" font-family="Arial" font-size="18" fill="#333">Player Information</text>
  
  <line x1="120" y1="190" x2="680" y2="190" stroke="#ddd" stroke-width="1" />
  
  <!-- Player data rows -->
  <text x="140" y="210" font-family="Arial" font-size="14" fill="#333">Name: John Smith</text>
  <text x="380" y="210" font-family="Arial" font-size="14" fill="#333">Position: Forward</text>
  
  <text x="140" y="230" font-family="Arial" font-size="14" fill="#333">Age: 12</text>
  <text x="380" y="230" font-family="Arial" font-size="14" fill="#333">Team: Hawks U12</text>
  
  <!-- Skills assessment section -->
  <rect x="120" y="270" width="260" height="260" fill="#f5f5f5" stroke="#ddd" stroke-width="1" />
  <text x="140" y="300" font-family="Arial" font-size="18" fill="#333">Skills Assessment</text>
  
  <line x1="120" y1="310" x2="380" y2="310" stroke="#ddd" stroke-width="1" />
  
  <!-- Radar chart suggestion -->
  <circle cx="250" cy="400" r="80" fill="none" stroke="#ddd" stroke-width="1" />
  <circle cx="250" cy="400" r="60" fill="none" stroke="#ddd" stroke-width="1" />
  <circle cx="250" cy="400" r="40" fill="none" stroke="#ddd" stroke-width="1" />
  <circle cx="250" cy="400" r="20" fill="none" stroke="#ddd" stroke-width="1" />
  
  <line x1="250" y1="320" x2="250" y2="480" stroke="#ddd" stroke-width="1" />
  <line x1="170" y1="400" x2="330" y2="400" stroke="#ddd" stroke-width="1" />
  <line x1="205" y1="355" x2="295" y2="445" stroke="#ddd" stroke-width="1" />
  <line x1="205" y1="445" x2="295" y2="355" stroke="#ddd" stroke-width="1" />
  
  <text x="250" y="315" font-family="Arial" font-size="10" fill="#333" text-anchor="middle">Skating</text>
  <text x="335" y="400" font-family="Arial" font-size="10" fill="#333">Shooting</text>
  <text x="250" y="490" font-family="Arial" font-size="10" fill="#333" text-anchor="middle">Passing</text>
  <text x="165" y="400" font-family="Arial" font-size="10" fill="#333" text-anchor="end">Stickhandling</text>
  <text x="295" y="355" font-family="Arial" font-size="10" fill="#333">Hockey IQ</text>
  <text x="205" y="355" font-family="Arial" font-size="10" fill="#333" text-anchor="end">Defense</text>
  
  <!-- Player skill polygon -->
  <polygon points="250,340 300,390 250,440 220,410 190,355 230,345" fill="#4169E1" fill-opacity="0.5" stroke="#4169E1" stroke-width="2" />
  
  <!-- Performance stats section -->
  <rect x="400" y="270" width="280" height="260" fill="#f5f5f5" stroke="#ddd" stroke-width="1" />
  <text x="420" y="300" font-family="Arial" font-size="18" fill="#333">Performance Stats</text>
  
  <line x1="400" y1="310" x2="680" y2="310" stroke="#ddd" stroke-width="1" />
  
  <!-- Bar chart suggestion -->
  <rect x="420" y="330" width="30" height="100" fill="#4169E1" />
  <rect x="460" y="360" width="30" height="70" fill="#4169E1" />
  <rect x="500" y="330" width="30" height="100" fill="#4169E1" />
  <rect x="540" y="290" width="30" height="140" fill="#4169E1" />
  <rect x="580" y="380" width="30" height="50" fill="#4169E1" />
  
  <line x1="420" y1="430" x2="610" y2="430" stroke="#333" stroke-width="1" />
  
  <text x="435" y="450" font-family="Arial" font-size="10" fill="#333" text-anchor="middle">G</text>
  <text x="475" y="450" font-family="Arial" font-size="10" fill="#333" text-anchor="middle">A</text>
  <text x="515" y="450" font-family="Arial" font-size="10" fill="#333" text-anchor="middle">P</text>
  <text x="555" y="450" font-family="Arial" font-size="10" fill="#333" text-anchor="middle">GP</text>
  <text x="595" y="450" font-family="Arial" font-size="10" fill="#333" text-anchor="middle">+/-</text>
  
  <!-- Bottom info section -->
  <rect x="100" y="550" width="600" height="25" fill="#0a3161" />
  <text x="400" y="568" font-family="Arial" font-size="12" fill="white" text-anchor="middle">Generated by Hockey Skills Tracker - 2025 Season Report</text>
</svg>